<svg width="59" height="38" viewBox="0 0 59 38" fill="none" xmlns="http://www.w3.org/2000/svg">
<path d="M7.596 13.144C6.336 13.144 5.196 12.868 4.176 12.316C3.168 11.752 2.376 10.984 1.8 10.012C1.224 9.028 0.936 7.924 0.936 6.7C0.936 5.476 1.224 4.378 1.8 3.406C2.376 2.422 3.174 1.654 4.194 1.102C5.214 0.538 6.354 0.256 7.614 0.256C8.598 0.256 9.498 0.424 10.314 0.76C11.13 1.084 11.826 1.57 12.402 2.218L11.232 3.352C10.284 2.356 9.102 1.858 7.686 1.858C6.75 1.858 5.904 2.068 5.148 2.488C4.392 2.908 3.798 3.49 3.366 4.234C2.946 4.966 2.736 5.788 2.736 6.7C2.736 7.612 2.946 8.44 3.366 9.184C3.798 9.916 4.392 10.492 5.148 10.912C5.904 11.332 6.75 11.542 7.686 11.542C9.09 11.542 10.272 11.038 11.232 10.03L12.402 11.164C11.826 11.812 11.124 12.304 10.296 12.64C9.48 12.976 8.58 13.144 7.596 13.144ZM25.5919 3.46V13H24.0259V6.034L20.4619 11.92H19.7059L16.1779 6.016V13H14.5939V3.46H16.3759L20.1199 9.904L23.9719 3.46H25.5919ZM32.3573 3.37C33.6773 3.37 34.6853 3.694 35.3813 4.342C36.0893 4.99 36.4433 5.956 36.4433 7.24V13H34.8053V11.74C34.5173 12.184 34.1033 12.526 33.5633 12.766C33.0353 12.994 32.4053 13.108 31.6733 13.108C30.6053 13.108 29.7473 12.85 29.0993 12.334C28.4633 11.818 28.1453 11.14 28.1453 10.3C28.1453 9.46 28.4513 8.788 29.0633 8.284C29.6753 7.768 30.6473 7.51 31.9793 7.51H34.7153V7.168C34.7153 6.424 34.4993 5.854 34.0673 5.458C33.6353 5.062 32.9993 4.864 32.1593 4.864C31.5953 4.864 31.0433 4.96 30.5033 5.152C29.9633 5.332 29.5073 5.578 29.1353 5.89L28.4153 4.594C28.9073 4.198 29.4953 3.898 30.1793 3.694C30.8633 3.478 31.5893 3.37 32.3573 3.37ZM31.9613 11.776C32.6213 11.776 33.1913 11.632 33.6713 11.344C34.1513 11.044 34.4993 10.624 34.7153 10.084V8.752H32.0513C30.5873 8.752 29.8553 9.244 29.8553 10.228C29.8553 10.708 30.0413 11.086 30.4133 11.362C30.7853 11.638 31.3013 11.776 31.9613 11.776ZM44.6129 3.37C45.5369 3.37 46.3649 3.574 47.0969 3.982C47.8289 4.39 48.3989 4.96 48.8069 5.692C49.2269 6.424 49.4369 7.27 49.4369 8.23C49.4369 9.19 49.2269 10.042 48.8069 10.786C48.3989 11.518 47.8289 12.088 47.0969 12.496C46.3649 12.904 45.5369 13.108 44.6129 13.108C43.9289 13.108 43.2989 12.976 42.7229 12.712C42.1589 12.448 41.6789 12.064 41.2829 11.56V16.492H39.5549V3.46H41.2109V4.972C41.5949 4.444 42.0809 4.048 42.6689 3.784C43.2569 3.508 43.9049 3.37 44.6129 3.37ZM44.4689 11.596C45.0809 11.596 45.6269 11.458 46.1069 11.182C46.5989 10.894 46.9829 10.498 47.2589 9.994C47.5469 9.478 47.6909 8.89 47.6909 8.23C47.6909 7.57 47.5469 6.988 47.2589 6.484C46.9829 5.968 46.5989 5.572 46.1069 5.296C45.6269 5.02 45.0809 4.882 44.4689 4.882C43.8689 4.882 43.3229 5.026 42.8309 5.314C42.3509 5.59 41.9669 5.98 41.6789 6.484C41.4029 6.988 41.2649 7.57 41.2649 8.23C41.2649 8.89 41.4029 9.478 41.6789 9.994C41.9549 10.498 42.3389 10.894 42.8309 11.182C43.3229 11.458 43.8689 11.596 44.4689 11.596ZM58.7059 4.972H55.2139V13H53.4859V4.972H49.9939V3.46H58.7059V4.972ZM13.968 33.434V37.754H12.294V35H1.926L1.908 37.754H0.234L0.252 33.434H0.864C1.656 33.386 2.214 32.762 2.538 31.562C2.862 30.35 3.06 28.646 3.132 26.45L3.258 22.4H12.114V33.434H13.968ZM4.716 26.612C4.656 28.388 4.512 29.858 4.284 31.022C4.068 32.186 3.714 32.99 3.222 33.434H10.332V23.966H4.806L4.716 26.612ZM24.5519 30.284C24.5519 30.416 24.5399 30.59 24.5159 30.806H16.7759C16.8839 31.646 17.2499 32.324 17.8739 32.84C18.5099 33.344 19.2959 33.596 20.2319 33.596C21.3719 33.596 22.2899 33.212 22.9859 32.444L23.9399 33.56C23.5079 34.064 22.9679 34.448 22.3199 34.712C21.6839 34.976 20.9699 35.108 20.1779 35.108C19.1699 35.108 18.2759 34.904 17.4959 34.496C16.7159 34.076 16.1099 33.494 15.6779 32.75C15.2579 32.006 15.0479 31.166 15.0479 30.23C15.0479 29.306 15.2519 28.472 15.6599 27.728C16.0799 26.984 16.6499 26.408 17.3699 26C18.1019 25.58 18.9239 25.37 19.8359 25.37C20.7479 25.37 21.5579 25.58 22.2659 26C22.9859 26.408 23.5439 26.984 23.9399 27.728C24.3479 28.472 24.5519 29.324 24.5519 30.284ZM19.8359 26.828C19.0079 26.828 18.3119 27.08 17.7479 27.584C17.1959 28.088 16.8719 28.748 16.7759 29.564H22.8959C22.7999 28.76 22.4699 28.106 21.9059 27.602C21.3539 27.086 20.6639 26.828 19.8359 26.828ZM31.3906 35.108C30.4186 35.108 29.5486 34.898 28.7806 34.478C28.0246 34.058 27.4306 33.482 26.9986 32.75C26.5666 32.006 26.3506 31.166 26.3506 30.23C26.3506 29.294 26.5666 28.46 26.9986 27.728C27.4306 26.984 28.0246 26.408 28.7806 26C29.5486 25.58 30.4186 25.37 31.3906 25.37C32.2546 25.37 33.0226 25.544 33.6946 25.892C34.3786 26.24 34.9066 26.744 35.2786 27.404L33.9646 28.25C33.6646 27.794 33.2926 27.452 32.8486 27.224C32.4046 26.996 31.9126 26.882 31.3726 26.882C30.7486 26.882 30.1846 27.02 29.6806 27.296C29.1886 27.572 28.7986 27.968 28.5106 28.484C28.2346 28.988 28.0966 29.57 28.0966 30.23C28.0966 30.902 28.2346 31.496 28.5106 32.012C28.7986 32.516 29.1886 32.906 29.6806 33.182C30.1846 33.458 30.7486 33.596 31.3726 33.596C31.9126 33.596 32.4046 33.482 32.8486 33.254C33.2926 33.026 33.6646 32.684 33.9646 32.228L35.2786 33.056C34.9066 33.716 34.3786 34.226 33.6946 34.586C33.0226 34.934 32.2546 35.108 31.3906 35.108ZM41.2238 30.968H39.2438V35H37.5158V25.46H39.2438V29.492H41.2598L44.3558 25.46H46.2098L42.5918 30.05L46.4618 35H44.4278L41.2238 30.968Z" fill="#141414"/>
</svg>
